<svg width="114" height="27" viewBox="0 0 114 27" fill="none" xmlns="http://www.w3.org/2000/svg">
<path d="M12.744 -5.88894e-05C14.328 -5.88894e-05 15.624 0.239942 16.632 0.719943C17.664 1.17594 18.576 1.71594 19.368 2.33994C19.848 2.69994 20.208 2.74794 20.448 2.48394C20.712 2.19594 20.892 1.53594 20.988 0.503943H21.816C21.768 1.43994 21.732 2.57994 21.708 3.92394C21.684 5.24394 21.672 7.00794 21.672 9.21594H20.844C20.724 8.11194 20.568 7.17594 20.376 6.40794C20.184 5.61594 19.92 4.91994 19.584 4.31994C19.248 3.71994 18.768 3.17994 18.144 2.69994C17.544 2.09994 16.848 1.65594 16.056 1.36794C15.264 1.07994 14.436 0.935942 13.572 0.935942C12.276 0.935942 11.172 1.28394 10.26 1.97994C9.348 2.65194 8.604 3.57594 8.028 4.75194C7.476 5.92794 7.068 7.25994 6.804 8.74794C6.54 10.2119 6.408 11.7359 6.408 13.3199C6.408 14.9279 6.54 16.4759 6.804 17.9639C7.092 19.4279 7.524 20.7359 8.1 21.8879C8.7 23.0399 9.468 23.9519 10.404 24.6239C11.34 25.2959 12.444 25.6319 13.716 25.6319C14.508 25.6319 15.3 25.4879 16.092 25.1999C16.908 24.8879 17.604 24.4439 18.18 23.8679C19.116 23.1479 19.752 22.2599 20.088 21.2039C20.424 20.1239 20.676 18.6959 20.844 16.9199H21.672C21.672 19.1999 21.684 21.0479 21.708 22.4639C21.732 23.8559 21.768 25.0319 21.816 25.9919H20.988C20.892 24.9599 20.724 24.3119 20.484 24.0479C20.268 23.7839 19.896 23.8199 19.368 24.1559C18.48 24.7799 17.532 25.3319 16.524 25.8119C15.54 26.2679 14.268 26.4959 12.708 26.4959C10.164 26.4959 7.932 25.9799 6.012 24.9479C4.116 23.9159 2.64 22.4279 1.584 20.4839C0.527996 18.5399 -4.09782e-06 16.1999 -4.09782e-06 13.4639C-4.09782e-06 10.7759 0.539996 8.42394 1.62 6.40794C2.724 4.39194 4.224 2.81994 6.12 1.69194C8.04 0.563942 10.248 -5.88894e-05 12.744 -5.88894e-05ZM34.9508 5.77594C36.9295 5.77594 38.6561 6.17728 40.1308 6.97994C41.6241 7.78261 42.7815 8.93994 43.6028 10.4519C44.4241 11.9453 44.8348 13.7653 44.8348 15.9119C44.8348 18.0026 44.4148 19.8319 43.5748 21.3999C42.7348 22.9679 41.5588 24.1906 40.0468 25.0679C38.5535 25.9453 36.8455 26.3839 34.9228 26.3839C32.9441 26.3839 31.2081 25.9826 29.7148 25.1799C28.2401 24.3773 27.0921 23.2199 26.2708 21.7079C25.4495 20.1959 25.0388 18.3759 25.0388 16.2479C25.0388 14.1573 25.4588 12.3279 26.2988 10.7599C27.1575 9.19194 28.3241 7.96928 29.7988 7.09194C31.2921 6.21461 33.0095 5.77594 34.9508 5.77594ZM34.8388 6.27994C33.7935 6.27994 32.8788 6.69994 32.0948 7.53994C31.3295 8.37994 30.7321 9.53728 30.3028 11.0119C29.8921 12.4866 29.6868 14.1946 29.6868 16.1359C29.6868 18.1146 29.9201 19.8413 30.3868 21.3159C30.8721 22.7719 31.5161 23.9013 32.3188 24.7039C33.1401 25.4879 34.0455 25.8799 35.0348 25.8799C36.0801 25.8799 36.9855 25.4599 37.7508 24.6199C38.5348 23.7799 39.1321 22.6226 39.5428 21.1479C39.9721 19.6546 40.1868 17.9466 40.1868 16.0239C40.1868 14.0266 39.9441 12.2999 39.4588 10.8439C38.9921 9.38794 38.3481 8.26794 37.5268 7.48394C36.7241 6.68128 35.8281 6.27994 34.8388 6.27994ZM61.7512 6.16794C61.6765 7.00794 61.6205 7.81994 61.5832 8.60394C61.5645 9.38794 61.5552 9.99461 61.5552 10.4239C61.5552 10.8346 61.5645 11.2266 61.5832 11.5999C61.6019 11.9733 61.6205 12.2906 61.6392 12.5519H60.9952C60.7525 11.0959 60.4165 9.95728 59.9872 9.13594C59.5579 8.29594 59.0259 7.69861 58.3912 7.34394C57.7752 6.98928 57.0379 6.81194 56.1792 6.81194H55.2552C54.7139 6.81194 54.3032 6.85861 54.0232 6.95194C53.7432 7.04528 53.5565 7.23194 53.4632 7.51194C53.3699 7.79194 53.3232 8.22128 53.3232 8.79994V22.8559C53.3232 23.5839 53.3979 24.1253 53.5472 24.4799C53.6965 24.8346 53.9859 25.0679 54.4152 25.1799C54.8445 25.2919 55.4792 25.3573 56.3192 25.3759V25.9919C55.7405 25.9733 54.9939 25.9546 54.0792 25.9359C53.1645 25.9173 52.2032 25.9079 51.1952 25.9079C50.3925 25.9079 49.6085 25.9173 48.8432 25.9359C48.0779 25.9546 47.3872 25.9733 46.7712 25.9919V25.4319C47.3685 25.3946 47.8165 25.3199 48.1152 25.2079C48.4139 25.0959 48.6099 24.8719 48.7032 24.5359C48.8152 24.1999 48.8712 23.6959 48.8712 23.0239V9.13594C48.8712 8.44528 48.8152 7.94128 48.7032 7.62394C48.6099 7.28794 48.4045 7.06394 48.0872 6.95194C47.7885 6.82128 47.3499 6.74661 46.7712 6.72794V6.16794C47.5365 6.18661 48.3485 6.20528 49.2072 6.22394C50.0659 6.22394 50.9152 6.23328 51.7552 6.25194C52.5952 6.25194 53.3792 6.25194 54.1072 6.25194C54.8352 6.25194 55.4325 6.25194 55.8992 6.25194C56.7579 6.25194 57.7285 6.25194 58.8112 6.25194C59.9125 6.23328 60.8925 6.20528 61.7512 6.16794ZM57.5792 15.8559C57.5792 15.8559 57.5792 15.9493 57.5792 16.1359C57.5792 16.3226 57.5792 16.4159 57.5792 16.4159H52.4832C52.4832 16.4159 52.4832 16.3226 52.4832 16.1359C52.4832 15.9493 52.4832 15.8559 52.4832 15.8559H57.5792ZM58.2792 12.1599C58.2045 13.2239 58.1672 14.0359 58.1672 14.5959C58.1859 15.1559 58.1952 15.6693 58.1952 16.1359C58.1952 16.6026 58.2045 17.1159 58.2232 17.6759C58.2419 18.2359 58.2885 19.0479 58.3632 20.1119H57.7192C57.6072 19.4586 57.4299 18.8519 57.1872 18.2919C56.9445 17.7319 56.5899 17.2839 56.1232 16.9479C55.6565 16.5933 55.0499 16.4159 54.3032 16.4159V15.8559C54.8632 15.8559 55.3299 15.7439 55.7032 15.5199C56.0952 15.2773 56.4219 14.9693 56.6832 14.5959C56.9445 14.2039 57.1499 13.7933 57.2992 13.3639C57.4485 12.9346 57.5605 12.5333 57.6352 12.1599H58.2792ZM78.3215 6.16794C78.2468 7.00794 78.1908 7.81994 78.1535 8.60394C78.1348 9.38794 78.1255 9.99461 78.1255 10.4239C78.1255 10.8346 78.1348 11.2266 78.1535 11.5999C78.1722 11.9733 78.1908 12.2906 78.2095 12.5519H77.5655C77.3228 11.0959 76.9868 9.95728 76.5575 9.13594C76.1282 8.29594 75.5962 7.69861 74.9615 7.34394C74.3455 6.98928 73.6082 6.81194 72.7495 6.81194H71.8255C71.2842 6.81194 70.8735 6.85861 70.5935 6.95194C70.3135 7.04528 70.1268 7.23194 70.0335 7.51194C69.9402 7.79194 69.8935 8.22128 69.8935 8.79994V22.8559C69.8935 23.5839 69.9682 24.1253 70.1175 24.4799C70.2668 24.8346 70.5562 25.0679 70.9855 25.1799C71.4148 25.2919 72.0495 25.3573 72.8895 25.3759V25.9919C72.3108 25.9733 71.5642 25.9546 70.6495 25.9359C69.7348 25.9173 68.7735 25.9079 67.7655 25.9079C66.9628 25.9079 66.1788 25.9173 65.4135 25.9359C64.6482 25.9546 63.9575 25.9733 63.3415 25.9919V25.4319C63.9388 25.3946 64.3868 25.3199 64.6855 25.2079C64.9842 25.0959 65.1802 24.8719 65.2735 24.5359C65.3855 24.1999 65.4415 23.6959 65.4415 23.0239V9.13594C65.4415 8.44528 65.3855 7.94128 65.2735 7.62394C65.1802 7.28794 64.9748 7.06394 64.6575 6.95194C64.3588 6.82128 63.9202 6.74661 63.3415 6.72794V6.16794C64.1068 6.18661 64.9188 6.20528 65.7775 6.22394C66.6362 6.22394 67.4855 6.23328 68.3255 6.25194C69.1655 6.25194 69.9495 6.25194 70.6775 6.25194C71.4055 6.25194 72.0028 6.25194 72.4695 6.25194C73.3282 6.25194 74.2988 6.25194 75.3815 6.25194C76.4828 6.23328 77.4628 6.20528 78.3215 6.16794ZM74.1495 15.8559C74.1495 15.8559 74.1495 15.9493 74.1495 16.1359C74.1495 16.3226 74.1495 16.4159 74.1495 16.4159H69.0535C69.0535 16.4159 69.0535 16.3226 69.0535 16.1359C69.0535 15.9493 69.0535 15.8559 69.0535 15.8559H74.1495ZM74.8495 12.1599C74.7748 13.2239 74.7375 14.0359 74.7375 14.5959C74.7562 15.1559 74.7655 15.6693 74.7655 16.1359C74.7655 16.6026 74.7748 17.1159 74.7935 17.6759C74.8122 18.2359 74.8588 19.0479 74.9335 20.1119H74.2895C74.1775 19.4586 74.0002 18.8519 73.7575 18.2919C73.5148 17.7319 73.1602 17.2839 72.6935 16.9479C72.2268 16.5933 71.6202 16.4159 70.8735 16.4159V15.8559C71.4335 15.8559 71.9002 15.7439 72.2735 15.5199C72.6655 15.2773 72.9922 14.9693 73.2535 14.5959C73.5148 14.2039 73.7202 13.7933 73.8695 13.3639C74.0188 12.9346 74.1308 12.5333 74.2055 12.1599H74.8495ZM94.8918 6.16794C94.8171 6.98928 94.7611 7.78261 94.7238 8.54794C94.7051 9.31328 94.6958 9.90128 94.6958 10.3119C94.6958 10.6853 94.7051 11.0399 94.7238 11.3759C94.7425 11.7119 94.7611 11.9919 94.7798 12.2159H94.1358C93.9491 10.8533 93.6598 9.77994 93.2678 8.99594C92.8758 8.19328 92.3625 7.63328 91.7278 7.31594C91.1118 6.97994 90.3838 6.81194 89.5438 6.81194H88.3958C87.8545 6.81194 87.4438 6.85861 87.1638 6.95194C86.8838 7.04528 86.6971 7.23194 86.6038 7.51194C86.5105 7.79194 86.4638 8.22128 86.4638 8.79994V23.3599C86.4638 23.9386 86.5105 24.3679 86.6038 24.6479C86.6971 24.9279 86.8838 25.1146 87.1638 25.2079C87.4438 25.3013 87.8545 25.3479 88.3958 25.3479H89.7678C90.6078 25.3479 91.3451 25.1706 91.9798 24.8159C92.6331 24.4426 93.1838 23.8173 93.6318 22.9399C94.0985 22.0626 94.4531 20.8773 94.6958 19.3839H95.3398C95.2838 19.9813 95.2558 20.7653 95.2558 21.7359C95.2558 22.1653 95.2651 22.7719 95.2838 23.5559C95.3025 24.3399 95.3585 25.1519 95.4518 25.9919C94.4998 25.9546 93.4265 25.9359 92.2318 25.9359C91.0371 25.9173 89.9731 25.9079 89.0398 25.9079C88.5731 25.9079 87.9758 25.9079 87.2478 25.9079C86.5198 25.9079 85.7358 25.9173 84.8958 25.9359C84.0558 25.9359 83.2065 25.9453 82.3478 25.9639C81.4891 25.9639 80.6771 25.9733 79.9118 25.9919V25.4319C80.5091 25.3946 80.9571 25.3199 81.2558 25.2079C81.5545 25.0959 81.7505 24.8719 81.8438 24.5359C81.9558 24.1999 82.0118 23.6959 82.0118 23.0239V9.13594C82.0118 8.44528 81.9558 7.94128 81.8438 7.62394C81.7505 7.28794 81.5451 7.06394 81.2278 6.95194C80.9291 6.82128 80.4905 6.74661 79.9118 6.72794V6.16794C80.6771 6.18661 81.4891 6.20528 82.3478 6.22394C83.2065 6.22394 84.0558 6.23328 84.8958 6.25194C85.7358 6.25194 86.5198 6.25194 87.2478 6.25194C87.9758 6.25194 88.5731 6.25194 89.0398 6.25194C89.8985 6.25194 90.8691 6.25194 91.9518 6.25194C93.0531 6.23328 94.0331 6.20528 94.8918 6.16794ZM90.5238 15.7439C90.5238 15.7439 90.5238 15.8373 90.5238 16.0239C90.5238 16.2106 90.5238 16.3039 90.5238 16.3039H85.6238C85.6238 16.3039 85.6238 16.2106 85.6238 16.0239C85.6238 15.8373 85.6238 15.7439 85.6238 15.7439H90.5238ZM91.3358 12.0479C91.2611 13.1119 91.2238 13.9239 91.2238 14.4839C91.2425 15.0439 91.2518 15.5573 91.2518 16.0239C91.2518 16.4906 91.2611 17.0039 91.2798 17.5639C91.2985 18.1239 91.3451 18.9359 91.4198 19.9999H90.7758C90.6825 19.3466 90.5051 18.7399 90.2438 18.1799C90.0011 17.6199 89.6465 17.1719 89.1798 16.8359C88.7131 16.4813 88.1065 16.3039 87.3598 16.3039V15.7439C87.9198 15.7439 88.3958 15.6319 88.7878 15.4079C89.1798 15.1653 89.4971 14.8573 89.7398 14.4839C90.0011 14.0919 90.2065 13.6813 90.3558 13.2519C90.5051 12.8226 90.6171 12.4213 90.6918 12.0479H91.3358ZM112.638 6.16794C112.563 6.98928 112.507 7.78261 112.47 8.54794C112.451 9.31328 112.442 9.90128 112.442 10.3119C112.442 10.6853 112.451 11.0399 112.47 11.3759C112.489 11.7119 112.507 11.9919 112.526 12.2159H111.882C111.695 10.8533 111.406 9.77994 111.014 8.99594C110.622 8.19328 110.109 7.63328 109.474 7.31594C108.858 6.97994 108.13 6.81194 107.29 6.81194H106.142C105.601 6.81194 105.19 6.85861 104.91 6.95194C104.63 7.04528 104.443 7.23194 104.35 7.51194C104.257 7.79194 104.21 8.22128 104.21 8.79994V23.3599C104.21 23.9386 104.257 24.3679 104.35 24.6479C104.443 24.9279 104.63 25.1146 104.91 25.2079C105.19 25.3013 105.601 25.3479 106.142 25.3479H107.514C108.354 25.3479 109.091 25.1706 109.726 24.8159C110.379 24.4426 110.93 23.8173 111.378 22.9399C111.845 22.0626 112.199 20.8773 112.442 19.3839H113.086C113.03 19.9813 113.002 20.7653 113.002 21.7359C113.002 22.1653 113.011 22.7719 113.03 23.5559C113.049 24.3399 113.105 25.1519 113.198 25.9919C112.246 25.9546 111.173 25.9359 109.978 25.9359C108.783 25.9173 107.719 25.9079 106.786 25.9079C106.319 25.9079 105.722 25.9079 104.994 25.9079C104.266 25.9079 103.482 25.9173 102.642 25.9359C101.802 25.9359 100.953 25.9453 100.094 25.9639C99.2352 25.9639 98.4232 25.9733 97.6579 25.9919V25.4319C98.2552 25.3946 98.7032 25.3199 99.0019 25.2079C99.3006 25.0959 99.4966 24.8719 99.5899 24.5359C99.7019 24.1999 99.7579 23.6959 99.7579 23.0239V9.13594C99.7579 8.44528 99.7019 7.94128 99.5899 7.62394C99.4966 7.28794 99.2912 7.06394 98.9739 6.95194C98.6752 6.82128 98.2366 6.74661 97.6579 6.72794V6.16794C98.4232 6.18661 99.2352 6.20528 100.094 6.22394C100.953 6.22394 101.802 6.23328 102.642 6.25194C103.482 6.25194 104.266 6.25194 104.994 6.25194C105.722 6.25194 106.319 6.25194 106.786 6.25194C107.645 6.25194 108.615 6.25194 109.698 6.25194C110.799 6.23328 111.779 6.20528 112.638 6.16794ZM108.27 15.7439C108.27 15.7439 108.27 15.8373 108.27 16.0239C108.27 16.2106 108.27 16.3039 108.27 16.3039H103.37C103.37 16.3039 103.37 16.2106 103.37 16.0239C103.37 15.8373 103.37 15.7439 103.37 15.7439H108.27ZM109.082 12.0479C109.007 13.1119 108.97 13.9239 108.97 14.4839C108.989 15.0439 108.998 15.5573 108.998 16.0239C108.998 16.4906 109.007 17.0039 109.026 17.5639C109.045 18.1239 109.091 18.9359 109.166 19.9999H108.522C108.429 19.3466 108.251 18.7399 107.99 18.1799C107.747 17.6199 107.393 17.1719 106.926 16.8359C106.459 16.4813 105.853 16.3039 105.106 16.3039V15.7439C105.666 15.7439 106.142 15.6319 106.534 15.4079C106.926 15.1653 107.243 14.8573 107.486 14.4839C107.747 14.0919 107.953 13.6813 108.102 13.2519C108.251 12.8226 108.363 12.4213 108.438 12.0479H109.082Z" fill="white"/>
</svg>
