<svg width="87" height="26" viewBox="0 0 87 26" fill="none" xmlns="http://www.w3.org/2000/svg">
<path d="M7.93601 8.032C8.76801 8.032 9.52534 8.128 10.208 8.32C10.912 8.49067 11.488 8.71467 11.936 8.992C12.4907 9.33333 12.9173 9.76 13.216 10.272C13.536 10.7627 13.696 11.3387 13.696 12C13.696 12.7467 13.4613 13.3653 12.992 13.856C12.5227 14.3253 11.9147 14.56 11.168 14.56C10.4213 14.56 9.82401 14.3467 9.37601 13.92C8.92801 13.4933 8.70401 12.9173 8.70401 12.192C8.70401 11.5093 8.91734 10.944 9.34401 10.496C9.77067 10.0267 10.2613 9.71734 10.816 9.568C10.6453 9.35467 10.3893 9.17333 10.048 9.024C9.70667 8.87467 9.32267 8.8 8.89601 8.8C8.23467 8.8 7.64801 8.992 7.13601 9.376C6.64534 9.76 6.22934 10.2933 5.88801 10.976C5.54667 11.6587 5.28001 12.4587 5.08801 13.376C4.91734 14.2933 4.83201 15.296 4.83201 16.384C4.83201 18.0267 5.03467 19.3173 5.44001 20.256C5.86667 21.1947 6.40001 21.856 7.04001 22.24C7.70134 22.624 8.38401 22.816 9.08801 22.816C9.49334 22.816 9.93067 22.752 10.4 22.624C10.8907 22.496 11.3813 22.24 11.872 21.856C12.384 21.472 12.8533 20.928 13.28 20.224L13.824 20.416C13.5893 21.2053 13.2053 21.9947 12.672 22.784C12.1387 23.5733 11.4453 24.224 10.592 24.736C9.73867 25.2267 8.69334 25.472 7.45601 25.472C6.06934 25.472 4.81067 25.1733 3.68001 24.576C2.57067 23.9573 1.67467 23.0187 0.992007 21.76C0.330674 20.48 7.27177e-06 18.8373 7.27177e-06 16.832C7.27177e-06 14.912 0.341341 13.3013 1.02401 12C1.72801 10.6773 2.67734 9.68534 3.87201 9.024C5.06667 8.36267 6.42134 8.032 7.93601 8.032ZM23.747 8.032C25.3043 8.032 26.6697 8.32 27.843 8.896C29.0163 9.472 29.9337 10.4 30.595 11.68C31.2563 12.96 31.587 14.656 31.587 16.768C31.587 18.88 31.2563 20.576 30.595 21.856C29.9337 23.1147 29.0163 24.032 27.843 24.608C26.6697 25.184 25.3043 25.472 23.747 25.472C22.2323 25.472 20.8777 25.184 19.683 24.608C18.5097 24.032 17.5817 23.1147 16.899 21.856C16.2377 20.576 15.907 18.88 15.907 16.768C15.907 14.656 16.2377 12.96 16.899 11.68C17.5817 10.4 18.5097 9.472 19.683 8.896C20.8777 8.32 22.2323 8.032 23.747 8.032ZM23.747 8.672C22.8937 8.672 22.179 9.312 21.603 10.592C21.027 11.8507 20.739 13.9093 20.739 16.768C20.739 19.6267 21.027 21.6853 21.603 22.944C22.179 24.2027 22.8937 24.832 23.747 24.832C24.6217 24.832 25.3363 24.2027 25.891 22.944C26.467 21.6853 26.755 19.6267 26.755 16.768C26.755 13.9093 26.467 11.8507 25.891 10.592C25.3363 9.312 24.6217 8.672 23.747 8.672ZM43.0888 1.28C44.2621 1.28 45.3074 1.54667 46.2248 2.08C47.1421 2.61333 47.7608 3.392 48.0808 4.416L47.5048 4.704C47.2701 3.91467 46.8008 3.264 46.0968 2.752C45.4141 2.24 44.5821 1.984 43.6008 1.984C42.5128 1.984 41.7128 2.32533 41.2008 3.008C40.6888 3.66934 40.4328 4.736 40.4328 6.208V8.512H44.6888V9.152H40.4328V22.048C40.4328 22.944 40.5821 23.552 40.8808 23.872C41.2008 24.192 41.7341 24.352 42.4808 24.352V25.024C42.0541 25.0027 41.4461 24.9813 40.6568 24.96C39.8888 24.9173 39.0888 24.896 38.2568 24.896C37.3821 24.896 36.4968 24.9173 35.6008 24.96C34.7048 24.9813 34.0328 25.0027 33.5848 25.024V24.352C34.3954 24.352 34.9714 24.192 35.3128 23.872C35.6541 23.552 35.8248 22.944 35.8248 22.048V9.152H33.4568V8.512H35.8248C35.8248 7.36 35.9954 6.32533 36.3368 5.408C36.6994 4.46933 37.2114 3.69067 37.8728 3.072C38.4701 2.53867 39.2061 2.112 40.0808 1.792C40.9768 1.45067 41.9794 1.28 43.0888 1.28ZM52.6248 0C53.3714 0 54.0221 0.096 54.5768 0.288C55.1314 0.48 55.6114 0.736001 56.0168 1.056C56.3368 1.29067 56.6034 1.62133 56.8168 2.048C57.0301 2.45333 57.1368 2.92267 57.1368 3.456C57.1368 4.032 56.9234 4.544 56.4968 4.992C56.0701 5.44 55.5261 5.664 54.8648 5.664C54.1608 5.664 53.5741 5.46133 53.1048 5.056C52.6568 4.65067 52.4328 4.096 52.4328 3.392C52.4328 2.83733 52.5928 2.34667 52.9128 1.92C53.2328 1.49333 53.6914 1.19467 54.2888 1.024C54.2248 0.896001 54.0968 0.789334 53.9048 0.704C53.7128 0.618667 53.4568 0.576 53.1368 0.576C52.7314 0.576 52.3901 0.650667 52.1128 0.800001C51.8354 0.949334 51.6008 1.152 51.4088 1.408C51.1954 1.728 51.0461 2.19733 50.9608 2.816C50.8754 3.41334 50.8328 4.34133 50.8328 5.6V8.512H54.2568V9.152H50.8328V21.728C50.8328 22.7733 51.0994 23.4773 51.6328 23.84C52.1661 24.1813 52.9021 24.352 53.8408 24.352V25.024C53.2861 25.0027 52.5074 24.9813 51.5048 24.96C50.5021 24.9173 49.4461 24.896 48.3368 24.896C47.5261 24.896 46.7261 24.9173 45.9368 24.96C45.1474 24.9813 44.5608 25.0027 44.1768 25.024V24.352C44.9234 24.352 45.4461 24.192 45.7448 23.872C46.0648 23.552 46.2248 22.944 46.2248 22.048V9.152H44.0488V8.512H46.2248C46.2248 7.25333 46.2888 6.208 46.4168 5.376C46.5448 4.52267 46.7474 3.79733 47.0248 3.2C47.3234 2.60267 47.7288 2.06933 48.2408 1.6C48.6888 1.152 49.2968 0.778668 50.0648 0.480001C50.8541 0.16 51.7074 0 52.6248 0ZM63.0908 8.032C64.9681 8.032 66.4401 8.58667 67.5068 9.696C68.5734 10.8053 69.1068 12.6187 69.1068 15.136H58.5788L58.5148 14.528H65.0748C65.0961 13.4827 65.0321 12.5227 64.8828 11.648C64.7334 10.752 64.4988 10.0373 64.1788 9.504C63.8588 8.97067 63.4321 8.704 62.8988 8.704C62.1521 8.704 61.5121 9.17333 60.9788 10.112C60.4668 11.0507 60.1574 12.608 60.0508 14.784L60.1468 14.976C60.1254 15.232 60.1041 15.4987 60.0828 15.776C60.0828 16.0533 60.0828 16.3413 60.0828 16.64C60.0828 18.112 60.2854 19.3067 60.6908 20.224C61.1174 21.1413 61.6508 21.8133 62.2908 22.24C62.9308 22.6453 63.5814 22.848 64.2428 22.848C64.6908 22.848 65.1494 22.784 65.6188 22.656C66.1094 22.5067 66.6001 22.2507 67.0908 21.888C67.5814 21.504 68.0401 20.9707 68.4668 20.288L69.0428 20.48C68.7868 21.2907 68.3814 22.08 67.8268 22.848C67.2721 23.616 66.5681 24.2453 65.7148 24.736C64.8614 25.2267 63.8374 25.472 62.6428 25.472C61.1921 25.472 59.9121 25.1627 58.8028 24.544C57.6934 23.9253 56.8188 22.9867 56.1788 21.728C55.5601 20.4693 55.2508 18.8693 55.2508 16.928C55.2508 14.944 55.5814 13.2907 56.2428 11.968C56.9254 10.6453 57.8534 9.664 59.0268 9.024C60.2214 8.36267 61.5761 8.032 63.0908 8.032ZM75.3758 25.248C74.4158 25.248 73.6158 25.0667 72.9758 24.704C72.3358 24.3413 71.8664 23.8613 71.5678 23.264C71.2691 22.6453 71.1198 21.9733 71.1198 21.248C71.1198 20.3307 71.3224 19.584 71.7278 19.008C72.1544 18.432 72.6984 17.9627 73.3598 17.6C74.0211 17.2373 74.7144 16.9387 75.4398 16.704C76.1864 16.4693 76.8904 16.2453 77.5518 16.032C78.2344 15.7973 78.7784 15.5307 79.1838 15.232C79.6104 14.912 79.8238 14.5067 79.8238 14.016V11.52C79.8238 10.9653 79.7278 10.4747 79.5358 10.048C79.3651 9.6 79.0878 9.25867 78.7038 9.024C78.3411 8.78933 77.8611 8.672 77.2638 8.672C76.8371 8.672 76.4104 8.736 75.9838 8.864C75.5571 8.97067 75.2051 9.16267 74.9278 9.44C75.5251 9.65333 75.9838 9.984 76.3038 10.432C76.6451 10.8587 76.8158 11.3493 76.8158 11.904C76.8158 12.6293 76.5598 13.2053 76.0478 13.632C75.5571 14.0587 74.9704 14.272 74.2878 14.272C73.5198 14.272 72.9331 14.0373 72.5278 13.568C72.1438 13.0773 71.9518 12.4907 71.9518 11.808C71.9518 11.1893 72.1011 10.6773 72.3998 10.272C72.7198 9.86667 73.1571 9.48267 73.7118 9.12C74.3091 8.77867 75.0238 8.512 75.8558 8.32C76.7091 8.128 77.6264 8.032 78.6078 8.032C79.5891 8.032 80.4744 8.13867 81.2638 8.352C82.0531 8.544 82.7144 8.90667 83.2478 9.44C83.7384 9.93067 84.0584 10.5387 84.2078 11.264C84.3571 11.968 84.4318 12.864 84.4318 13.952V22.656C84.4318 23.1893 84.4851 23.5627 84.5918 23.776C84.6984 23.968 84.8798 24.064 85.1358 24.064C85.3278 24.064 85.5091 24.0107 85.6798 23.904C85.8718 23.7973 86.0744 23.6693 86.2878 23.52L86.6078 24.064C86.1598 24.448 85.6371 24.7467 85.0398 24.96C84.4638 25.152 83.8131 25.248 83.0878 25.248C82.2984 25.248 81.6691 25.1413 81.1998 24.928C80.7304 24.6933 80.3891 24.384 80.1758 24C79.9838 23.616 79.8878 23.168 79.8878 22.656C79.3758 23.4667 78.7571 24.1067 78.0318 24.576C77.3064 25.024 76.4211 25.248 75.3758 25.248ZM77.6478 23.2C78.0744 23.2 78.4584 23.104 78.7998 22.912C79.1624 22.6987 79.5038 22.3573 79.8238 21.888V15.328C79.6318 15.648 79.3651 15.936 79.0238 16.192C78.6824 16.448 78.3198 16.7147 77.9358 16.992C77.5518 17.248 77.1784 17.536 76.8158 17.856C76.4744 18.176 76.1971 18.5707 75.9838 19.04C75.7704 19.5093 75.6638 20.0747 75.6638 20.736C75.6638 21.568 75.8451 22.1867 76.2078 22.592C76.5704 22.9973 77.0504 23.2 77.6478 23.2Z" fill="white"/>
</svg>
