<svg width="33" height="33" viewBox="0 0 33 33" fill="none" xmlns="http://www.w3.org/2000/svg">
<path d="M16.4147 10.9432C16.4147 10.9432 16.4147 10.9432 15.3751 9.57526C14.1714 7.98851 12.3931 6.83948 10.2592 6.83948C6.85313 6.83948 4.10367 9.58894 4.10367 12.995C4.10367 14.2671 4.48668 15.4435 5.14327 16.4147C6.25126 18.0699 16.4147 28.7257 16.4147 28.7257M16.4147 10.9432C16.4147 10.9432 16.4147 10.9432 17.4543 9.57526C18.658 7.98851 20.4363 6.83948 22.5702 6.83948C25.9763 6.83948 28.7257 9.58894 28.7257 12.995C28.7257 14.2671 28.3427 15.4435 27.6861 16.4147C26.5781 18.0699 16.4147 28.7257 16.4147 28.7257" stroke="#F1F0EE" stroke-width="2" stroke-linecap="round" stroke-linejoin="round"/>
</svg>
